<?xml version="1.0" encoding="UTF-8" standalone="no"?>
<!-- Created with Inkscape (http://www.inkscape.org/) -->

<svg
   xmlns:dc="http://purl.org/dc/elements/1.1/"
   xmlns:cc="http://creativecommons.org/ns#"
   xmlns:rdf="http://www.w3.org/1999/02/22-rdf-syntax-ns#"
   xmlns:svg="http://www.w3.org/2000/svg"
   xmlns="http://www.w3.org/2000/svg"
   xmlns:sodipodi="http://sodipodi.sourceforge.net/DTD/sodipodi-0.dtd"
   xmlns:inkscape="http://www.inkscape.org/namespaces/inkscape"
   id="svg2"
   version="1.1"
   inkscape:version="0.48.4 r9939"
   width="377"
   height="371"
   sodipodi:docname="HydrogenOrbitalsN6L0M0.svg">
  <metadata
     id="metadata8">
    <rdf:RDF>
      <cc:Work
         rdf:about="">
        <dc:format>image/svg+xml</dc:format>
        <dc:type
           rdf:resource="http://purl.org/dc/dcmitype/StillImage" />
        <dc:title></dc:title>
      </cc:Work>
    </rdf:RDF>
  </metadata>
  <defs
     id="defs6" />
  <sodipodi:namedview
     pagecolor="#ffffff"
     bordercolor="#666666"
     borderopacity="1"
     objecttolerance="10"
     gridtolerance="10"
     guidetolerance="10"
     inkscape:pageopacity="0"
     inkscape:pageshadow="2"
     inkscape:window-width="640"
     inkscape:window-height="480"
     id="namedview4"
     showgrid="false"
     inkscape:zoom="0.6361186"
     inkscape:cx="188.5"
     inkscape:cy="210.56007"
     inkscape:window-x="0"
     inkscape:window-y="0"
     inkscape:window-maximized="0"
     inkscape:current-layer="svg2" />
  <path
     style="fill:#000000"
     d="M 163.00872,351.48254 C 96.503489,341.13791 43.020299,293.34691 25.879929,228.9483 2.2005092,139.98159 55.404169,48.282578 144.45352,24.58116 225.57097,2.9908887 311.28218,45.785078 342.15251,123.28898 382.5431,224.69472 318.94443,335.24069 210.83985,351.53411 c -12.2582,1.84755 -35.78485,1.82218 -47.83113,-0.0516 z m 53.32246,-19.92952 c 60.90913,-13.67837 103.57118,-56.67428 116.7134,-117.62675 2.56492,-11.89587 2.56492,-43.85363 0,-55.7495 C 319.812,96.805213 276.5966,53.589818 215.22505,40.357228 c -11.89587,-2.56492 -43.85363,-2.56492 -55.7495,0 C 98.103999,53.589818 54.888589,96.805213 41.656009,158.17677 c -2.56492,11.89587 -2.56492,43.85363 0,55.7495 9.34025,43.31924 33.27672,77.34155 70.009791,99.50899 16.56578,9.99701 31.96511,15.33777 57.6845,20.00597 6.03213,1.09487 39.72787,-0.2594 46.98088,-1.88821 z M 173.3503,318.44104 C 115.22812,311.25602 69.884229,270.08087 57.201279,212.9703 c -3.31452,-14.92508 -3.31452,-38.91248 0,-53.83756 C 71.174029,96.214303 123.73672,53.588728 187.3503,53.588728 c 36.71918,0 66.55402,12.17394 92.81158,37.871225 41.53471,40.648467 51.89282,102.191097 25.93483,154.091567 -14.687,29.36523 -41.51085,53.41989 -72.74641,65.23637 -15.85454,5.9978 -44.17214,9.60978 -60,7.65315 z m 40.20581,-29.73083 c 37.28211,-9.68398 66.42552,-38.7949 76.53821,-76.45288 3.82407,-14.24017 3.82407,-38.17145 0,-52.41162 -10.10449,-37.62744 -38.91078,-66.433737 -76.53821,-76.538223 -14.24017,-3.824059 -38.17145,-3.824059 -52.41162,0 -37.62743,10.104486 -66.433731,38.910783 -76.538221,76.538223 -3.82406,14.24017 -3.82406,38.17145 0,52.41162 15.26063,56.82801 72.911771,91.00871 128.949841,76.45288 z m -42.21763,-6.13016 C 104.59131,271.32709 68.786219,196.29996 102.25924,137.8292 c 37.68439,-65.827162 132.49773,-65.827162 170.18212,0 40.46988,70.69289 -20.72194,158.30234 -101.10288,144.75085 z m 35.02834,-6.98197 c 62.78618,-12.92619 92.79345,-86.87488 56.97158,-140.39843 -36.16437,-54.035283 -115.81183,-54.035283 -151.9762,0 -20.613991,30.80057 -20.613991,70.90317 0,101.70373 20.8858,31.20669 57.98376,46.31642 95.00462,38.6947 z M 168.3503,263.04785 c -59.60662,-14.7734 -80.477941,-89.6784 -37.08,-133.07634 43.58743,-43.587423 118.68733,-22.3895 133.13822,37.58001 13.81373,57.32537 -38.84537,109.67644 -96.05822,95.49633 z m 34.5,-6.51157 c 51.41363,-10.87411 73.38909,-72.49422 41.08378,-115.20065 -27.20644,-35.9659 -85.96112,-35.9659 -113.16756,0 -40.931711,54.11021 6.03506,129.17011 72.08378,115.20065 z m -32,-11.37815 c -10.52946,-3.07269 -18.45805,-7.83684 -26.61526,-15.99265 -38.60839,-38.60178 -11.47874,-104.11397 43.11526,-104.11397 46.10269,0 75.18406,47.89096 54.29554,89.41343 -12.40479,24.65839 -44.21535,38.44976 -70.79554,30.69319 z m 29.9477,-5.635 c 41.23515,-10.7404 55.47469,-62.38922 25.4723,-92.39161 -34.43246,-34.43247 -93.92,-9.78111 -93.92,38.92 0,35.54644 34.32325,62.3599 68.4477,53.47161 z m -27.54316,-10.36936 c -35.41706,-11.3312 -42.24176,-60.08989 -11.28663,-80.63673 30.37317,-20.16057 70.38209,1.17603 70.38209,37.53448 0,30.88809 -29.65869,52.52015 -59.09546,43.10225 z m 26.61426,-14.00754 c 20.0473,-8.86787 25.33034,-34.36947 10.46182,-50.49991 -19.43312,-21.08244 -54.38192,-7.32629 -54.38192,21.4052 0,22.75143 23.32673,38.20414 43.9201,29.09471 z m -23.50336,-8.80245 c -15.34581,-8.06021 -16.25119,-30.68755 -1.59057,-39.75151 10.91088,-6.74568 25.55311,-3.5991 32.03438,6.88412 12.56745,20.32736 -9.32324,43.96072 -30.44381,32.86739 z m 19.06288,-6.56606 c 10.63999,-7.17029 10.63999,-20.28211 0,-27.4524 -9.81276,-6.61282 -24.07832,1.51947 -24.07832,13.7262 0,8.66329 7.33671,16 16,16 3.23712,0 5.75651,-0.70913 8.07832,-2.2738 z"
     id="path2987"
     inkscape:connector-curvature="0" />
</svg>
